<?xml version="1.0" standalone="no"?>
<!DOCTYPE svg PUBLIC "-//W3C//DTD SVG 20010904//EN"
 "http://www.w3.org/TR/2001/REC-SVG-20010904/DTD/svg10.dtd">
<svg version="1.0" xmlns="http://www.w3.org/2000/svg"
 width="200.000000pt" height="200.000000pt" viewBox="0 0 200.000000 200.000000"
 preserveAspectRatio="xMidYMid meet">

<g transform="translate(0.000000,200.000000) scale(0.100000,-0.100000)"
fill='rgb(128, 159, 209)' stroke="none">
<path d="M983 1858 c-4 -7 -10 -49 -13 -93 l-5 -80 -48 83 c-34 59 -53 82 -65
80 -33 -6 -23 -40 47 -158 l70 -119 -230 -391 c-127 -215 -229 -399 -227 -408
3 -16 39 -17 488 -17 446 0 485 1 488 17 3 15 -142 270 -380 670 l-76 126 75
127 c65 110 73 129 61 142 -23 22 -40 7 -88 -77 l-45 -80 -5 92 c-4 76 -8 93
-22 96 -9 2 -20 -3 -25 -10z m-104 -790 c-44 -101 -87 -200 -96 -220 l-15 -38
-89 0 -88 0 116 198 c63 108 121 207 129 220 12 18 23 22 69 22 l54 0 -80
-182z m354 42 c44 -74 101 -172 128 -217 l49 -83 -89 0 -89 0 -15 38 c-9 20
-52 119 -96 220 l-80 183 56 -3 57 -3 79 -135z" fill='rgb(128, 159, 209)'/>





</g>
</svg>
